<?xml version="1.0" standalone="no"?>
<!DOCTYPE svg PUBLIC "-//W3C//DTD SVG 20010904//EN"
 "http://www.w3.org/TR/2001/REC-SVG-20010904/DTD/svg10.dtd">
<svg version="1.0" xmlns="http://www.w3.org/2000/svg"
 width="1252.000000pt" height="1192.000000pt" viewBox="0 0 1252.000000 1192.000000"
 preserveAspectRatio="xMidYMid meet">

<g transform="translate(0.000000,1192.000000) scale(0.100000,-0.100000)"
fill="#000000" stroke="none">
<path d="M6595 9800 c-121 -20 -135 -23 -135 -31 0 -4 -10 -11 -22 -15 -13 -4
-26 -12 -30 -18 -4 -6 -42 -14 -85 -18 -71 -6 -118 -13 -118 -18 0 -1 -13 -4
-29 -6 -28 -3 -43 -14 -94 -66 -15 -16 -35 -28 -45 -28 -9 0 -20 -7 -23 -15
-4 -8 -13 -15 -20 -15 -8 0 -17 -6 -20 -14 -3 -8 -16 -17 -29 -20 -30 -8 -75
-55 -75 -78 0 -10 -4 -19 -10 -19 -5 -1 -14 -2 -20 -3 -5 0 -21 -13 -35 -28
-14 -16 -31 -28 -38 -28 -18 0 -87 -105 -87 -132 0 -12 -6 -29 -13 -37 -21
-25 -50 -130 -53 -191 -2 -30 -6 -86 -9 -125 -4 -38 -6 -124 -5 -190 1 -88 -3
-134 -15 -168 -14 -42 -14 -50 -1 -69 15 -22 16 -21 31 15 59 143 84 184 149
255 35 38 42 39 49 11 3 -12 10 -18 16 -14 6 3 11 -1 11 -9 0 -11 10 -16 33
-18 46 -2 50 -3 65 -11 17 -11 15 -46 -3 -53 -8 -4 -15 -13 -15 -21 0 -8 4
-12 9 -9 13 9 49 -37 45 -59 -2 -11 4 -30 12 -42 7 -12 14 -31 14 -42 0 -10 7
-31 15 -47 16 -31 6 -53 -24 -55 -10 0 -11 -2 -3 -6 21 -8 13 -23 -14 -23 -14
0 -37 -9 -51 -20 -14 -11 -37 -20 -50 -20 -13 0 -33 -9 -45 -20 -37 -34 -88
-53 -112 -42 -15 6 -28 6 -40 0 -9 -5 -34 -7 -55 -3 -35 6 -45 2 -98 -39 -41
-31 -62 -55 -70 -79 l-10 -34 266 -2 c172 -1 270 -6 276 -13 7 -7 -63 -9 -237
-4 -137 3 -248 2 -248 -2 0 -5 -15 -7 -32 -6 l-33 3 28 -11 c15 -7 27 -15 27
-20 0 -4 6 -8 14 -8 19 0 28 -15 32 -54 2 -17 6 -41 9 -54 5 -19 0 -25 -27
-37 -27 -11 -30 -15 -15 -20 14 -6 15 -10 5 -22 -6 -8 -20 -12 -30 -10 -10 3
-21 1 -24 -4 -3 -5 -10 -7 -15 -4 -5 4 -9 -3 -9 -14 0 -12 7 -21 15 -21 9 0
15 -9 15 -23 0 -16 9 -26 30 -34 23 -9 30 -18 30 -37 0 -14 -4 -26 -10 -26 -5
0 -10 -9 -10 -20 0 -11 3 -20 8 -20 18 0 80 45 115 82 43 48 45 41 15 -39 -21
-59 -45 -87 -79 -98 -11 -4 -16 -11 -13 -17 4 -6 9 -5 15 3 4 7 11 10 15 6 14
-14 -20 -37 -55 -37 -29 0 -44 -7 -67 -32 -58 -63 -70 -141 -34 -213 21 -41
20 -61 -2 -26 -16 25 -34 27 -42 4 -8 -21 20 -61 62 -88 17 -11 31 -28 32 -37
0 -9 -16 -47 -35 -83 -19 -37 -32 -72 -29 -77 4 -5 -5 -22 -19 -36 -34 -38
-58 -77 -51 -85 4 -4 -1 -18 -10 -31 -17 -27 -21 -73 -7 -95 7 -11 13 -9 30 8
11 11 21 27 21 35 0 18 26 27 56 20 26 -7 33 -24 9 -24 -8 0 -15 -4 -15 -10 0
-5 -9 -10 -20 -10 -15 0 -20 -7 -20 -24 0 -14 -4 -27 -8 -30 -11 -7 -4 -121
11 -183 9 -38 17 -49 35 -51 26 -4 29 -30 7 -71 -8 -16 -19 -51 -25 -77 -25
-111 30 -197 183 -288 51 -30 124 -79 162 -108 58 -44 76 -65 106 -123 44 -88
91 -226 96 -283 2 -25 5 -47 7 -51 2 -3 -2 -12 -10 -19 -13 -12 -18 -8 -15 11
1 4 -10 20 -24 35 -22 23 -27 25 -35 12 -5 -8 -10 -23 -10 -32 0 -10 -4 -18
-9 -18 -15 0 -21 78 -15 190 4 61 4 110 -1 110 -14 0 -147 -135 -230 -235 -46
-55 -121 -136 -166 -180 -45 -44 -95 -98 -111 -119 -31 -44 -122 -140 -190
-203 -25 -23 -48 -46 -49 -51 -11 -28 -139 -146 -139 -128 0 3 38 47 84 98 78
86 99 121 58 99 -9 -5 -75 -23 -147 -40 -119 -28 -152 -37 -270 -72 -60 -18
-128 -55 -142 -77 -6 -10 -43 -40 -81 -65 -83 -55 -231 -217 -267 -293 -13
-28 -38 -93 -55 -145 -17 -52 -37 -107 -44 -124 -8 -16 -19 -66 -25 -110 -35
-251 -64 -393 -90 -444 -11 -21 -47 -188 -61 -280 -6 -41 -13 -78 -16 -83 -3
-5 -12 -46 -19 -91 -8 -45 -18 -107 -24 -137 -5 -30 -15 -171 -22 -313 -10
-207 -10 -287 0 -406 17 -206 12 -387 -15 -561 -13 -80 -23 -172 -24 -206 0
-79 -22 -150 -76 -253 -24 -46 -57 -122 -74 -170 -23 -67 -37 -92 -62 -111
-75 -57 -95 -83 -102 -135 -3 -27 -9 -67 -12 -87 -5 -34 -1 -42 42 -88 l48
-51 -21 -117 c-12 -64 -26 -135 -32 -157 -28 -108 -51 -239 -55 -317 l-5 -88
874 0 875 0 0 26 c0 38 22 118 34 126 16 11 66 10 66 -2 0 -5 -7 -35 -15 -67
-8 -31 -15 -63 -15 -70 0 -11 425 -13 2279 -13 l2278 0 6 43 c3 23 17 92 32
152 15 61 33 139 41 174 8 35 19 71 23 80 5 9 12 55 16 101 4 47 13 110 20
140 8 30 17 82 20 115 4 33 13 98 20 145 8 47 17 117 20 155 3 39 13 104 20
145 8 41 17 102 20 135 4 33 13 94 20 135 8 41 17 113 21 160 4 47 12 94 19
105 34 55 63 507 45 694 -6 63 -8 139 -4 170 6 58 -13 149 -57 271 -26 71 -87
197 -98 205 -6 3 -43 72 -83 153 -40 81 -94 174 -119 207 -25 33 -51 70 -58
82 -6 13 -56 69 -110 125 -54 57 -116 126 -136 153 -73 97 -211 239 -319 329
-60 50 -140 118 -179 151 -102 88 -147 122 -192 146 -35 18 -138 96 -239 180
-17 14 -53 39 -81 54 -27 16 -70 42 -95 59 -25 17 -81 52 -124 79 -44 26 -107
72 -140 103 -34 31 -119 94 -191 140 -71 47 -142 97 -156 110 -29 28 -68 123
-92 226 -9 38 -39 114 -67 170 -28 57 -62 145 -75 197 -25 91 -25 96 -10 148
16 55 85 140 190 235 94 85 301 301 326 341 15 23 41 55 58 71 22 21 39 56 61
122 18 52 42 115 56 141 13 27 24 53 24 59 0 5 15 41 34 80 19 38 40 92 47
119 6 28 23 72 37 99 13 27 40 90 59 140 18 50 38 100 43 111 5 11 22 58 39
105 63 178 80 219 143 345 54 106 71 151 91 245 41 186 47 231 47 331 0 110
-13 143 -87 235 -27 34 -57 79 -66 101 -9 22 -22 47 -29 54 -7 8 -32 52 -55
99 -33 69 -48 87 -72 97 -20 7 -37 24 -46 45 -9 18 -19 40 -24 48 -5 8 -25 50
-45 92 -28 63 -51 94 -123 166 -110 110 -174 149 -344 207 -74 26 -172 60
-219 76 -86 31 -172 48 -355 69 -55 6 -128 18 -162 27 -47 12 -66 13 -76 4 -8
-6 -32 -9 -55 -7 -25 2 -43 0 -45 -7 -3 -9 -13 -8 -38 2 -40 16 -280 23 -354
11z m-695 -350 c0 -5 -2 -10 -4 -10 -3 0 -8 5 -11 10 -3 6 -1 10 4 10 6 0 11
-4 11 -10z m520 -1505 c12 -25 24 -64 26 -88 4 -40 4 -40 -15 17 -11 33 -28
71 -39 85 -34 48 -37 54 -14 42 11 -6 30 -31 42 -56z m-855 -15 c3 -5 1 -10
-4 -10 -6 0 -11 5 -11 10 0 6 2 10 4 10 3 0 8 -4 11 -10z m198 -22 c18 -22 24
-88 7 -88 -5 0 -10 15 -10 34 0 41 -17 56 -69 63 -37 5 -41 3 -51 -21 -5 -15
-10 -37 -10 -49 0 -12 -6 -29 -13 -38 -10 -13 -12 -3 -12 54 0 39 1 63 3 54 4
-21 18 -22 25 -3 6 15 58 25 92 18 11 -2 28 -13 38 -24z m-13 -68 c0 -16 -4
-32 -10 -35 -6 -4 -10 10 -10 35 0 25 4 39 10 35 6 -3 10 -19 10 -35z m875
-70 l40 -8 -52 -1 c-41 -1 -55 -5 -63 -21 -9 -17 -21 -20 -70 -20 l-60 0 0 36
0 37 83 -7 c45 -4 100 -11 122 -16z m93 -17 c-10 -2 -26 -2 -35 0 -10 3 -2 5
17 5 19 0 27 -2 18 -5z m-848 -53 c0 -5 -7 -7 -15 -4 -8 4 -15 8 -15 10 0 2 7
4 15 4 8 0 15 -4 15 -10z m48 -16 c32 -9 27 -24 -8 -24 -20 0 -30 5 -30 15 0
17 4 18 38 9z m-188 -299 c0 -8 -4 -15 -9 -15 -5 0 -14 7 -21 15 -10 13 -9 15
9 15 12 0 21 -6 21 -15z m1214 -2983 c5 -8 -50 -10 -57 -2 -3 3 8 6 24 7 15 1
30 -1 33 -5z m-14 -107 c17 -9 30 -17 30 -20 0 -6 -63 16 -74 26 -16 15 12 10
44 -6z m-23 -33 c18 -8 30 -19 27 -24 -3 -4 -11 -5 -17 -1 -18 11 -57 13 -57
2 0 -5 5 -9 10 -9 6 0 10 -4 10 -10 0 -13 -26 -13 -51 1 -20 10 -20 11 -2 24
17 13 17 14 1 20 -10 4 -18 12 -18 17 0 12 53 1 97 -20z m-1169 -512 c-14 -22
-24 -19 -15 5 4 8 11 15 17 15 6 0 6 -7 -2 -20z m121 -35 c-1 -29 -1 -29 -9
-5 -4 14 -8 34 -9 45 -1 16 1 17 9 5 5 -8 9 -28 9 -45z m-105 -31 c9 -3 13
-10 10 -15 -3 -5 2 -9 10 -9 9 0 16 -5 16 -11 0 -5 -13 -2 -30 8 -39 22 -43
41 -6 27z m-444 -73 c0 -5 -3 -22 -6 -38 -6 -29 -9 -30 -60 -32 -59 -2 -73 13
-23 23 27 5 30 8 18 22 -10 13 -10 17 2 25 18 11 69 12 69 0z m-40 -90 c0 -9
-34 -21 -62 -21 -31 0 -19 19 15 23 17 2 35 5 40 5 4 1 7 -2 7 -7z m30 -11 c0
-11 -4 -20 -9 -20 -5 0 -7 9 -4 20 3 11 7 20 9 20 2 0 4 -9 4 -20z m-14 -105
c-3 -9 -9 -14 -14 -11 -4 2 -14 1 -22 -5 -13 -7 -12 -9 3 -9 9 0 17 -5 17 -11
0 -6 -10 -9 -22 -7 -18 2 -23 10 -23 33 0 23 5 30 25 35 30 8 45 -2 36 -25z
m-99 -82 c-2 -16 -4 -5 -4 22 0 28 2 40 4 28 2 -13 2 -35 0 -50z m93 11 c0 -2
-15 -4 -32 -3 -27 0 -29 2 -13 8 18 8 45 4 45 -5z m0 -55 c0 -12 -7 -16 -24
-15 -15 2 -27 -3 -31 -12 -4 -11 0 -13 15 -9 15 4 20 0 20 -13 0 -10 -6 -21
-12 -23 -7 -3 -3 -6 10 -6 23 -1 30 -17 10 -23 -6 -2 -11 -23 -11 -46 0 -37
-3 -42 -24 -42 -18 0 -23 5 -23 25 0 17 6 25 18 25 15 1 15 2 -3 12 -19 11
-19 11 0 19 14 5 15 8 5 8 -11 1 -16 15 -18 55 -3 50 -1 55 20 58 42 7 48 5
48 -13z m1062 -19 c12 -11 16 -20 9 -20 -7 0 -10 -4 -7 -9 8 -13 -4 -41 -18
-41 -6 0 -19 7 -30 15 -16 12 -17 17 -5 44 16 36 23 38 51 11z m78 -40 c0 -5
-4 -10 -8 -10 -9 0 -18 -17 -47 -85 -27 -66 -38 -85 -47 -85 -5 0 -6 -4 -3
-10 3 -5 -1 -10 -10 -10 -9 0 -15 3 -13 8 22 50 73 148 78 152 4 3 10 15 14
28 7 22 36 32 36 12z m-1223 -6 c-3 -3 -12 -4 -19 -1 -8 3 -5 6 6 6 11 1 17
-2 13 -5z m-17 -124 l-7 -85 -1 100 c-1 57 2 93 7 85 4 -8 5 -53 1 -100z
m1124 91 c21 -23 11 -51 -18 -51 -19 -1 -19 -2 -3 -11 16 -9 16 -12 2 -32 -8
-12 -15 -29 -15 -39 0 -10 -4 -18 -10 -18 -5 0 -10 -9 -10 -20 0 -28 -23 -34
-58 -16 -23 12 -29 21 -25 36 6 24 23 27 23 4 0 -8 5 -12 10 -9 6 3 10 18 10
32 0 21 4 24 23 20 21 -6 21 -6 -3 13 -21 17 -23 21 -10 30 8 5 19 10 23 10 5
0 5 5 2 10 -3 6 -2 10 3 10 6 0 13 11 16 25 8 30 17 31 40 6z m-1054 -111 c4
0 8 -16 7 -35 -1 -36 -4 -39 -31 -29 -10 4 -16 18 -16 41 0 28 3 34 16 29 9
-3 19 -6 24 -6z m1050 -86 c0 -8 -7 -14 -15 -14 -17 0 -18 2 -9 24 7 18 24 12
24 -10z m-90 -40 c24 -23 -9 -18 -45 6 l-30 21 30 -7 c17 -3 37 -13 45 -20z
m70 -4 c0 -5 -13 -31 -29 -59 -16 -27 -27 -52 -24 -55 4 -3 -1 -6 -10 -6 -9 0
-19 5 -22 10 -3 6 1 10 9 10 9 0 16 9 16 21 0 25 42 99 52 93 5 -3 8 -9 8 -14z
m-99 -19 c13 -12 17 -21 10 -26 -6 -3 -9 -11 -5 -16 7 -13 -15 -41 -27 -33 -5
3 -6 10 -3 16 5 8 1 9 -11 5 -22 -9 -46 9 -38 29 4 10 13 14 28 10 19 -5 22
-3 18 14 -7 25 2 25 28 1z m-95 -113 c-4 -13 -8 -29 -9 -37 -2 -14 91 -76 101
-67 10 10 -19 35 -49 41 -34 8 -46 22 -30 38 9 9 14 9 19 1 4 -6 22 -19 40
-28 36 -18 40 -40 15 -76 -19 -28 -33 -40 -48 -40 -5 0 -3 5 5 11 12 9 10 10
-8 6 -13 -3 -43 3 -67 13 l-44 19 31 70 c17 39 35 71 41 71 5 0 6 -10 3 -22z
m-519 -430 c-3 -7 -5 -2 -5 12 0 14 2 19 5 13 2 -7 2 -19 0 -25z m-327 -438
c0 -33 -3 -40 -20 -40 -11 0 -20 7 -20 15 0 8 3 14 8 14 19 -3 23 2 12 16 -12
15 -6 35 11 35 5 0 9 -18 9 -40z m-5 -70 c3 -5 -1 -10 -9 -10 -9 0 -16 5 -16
10 0 6 4 10 9 10 6 0 13 -4 16 -10z m5 -116 c0 -8 -4 -12 -10 -9 -5 3 -10 10
-10 16 0 5 5 9 10 9 6 0 10 -7 10 -16z m450 -46 c0 -5 -4 -7 -9 -4 -4 3 -6 -6
-3 -19 3 -18 0 -25 -12 -25 -9 0 -16 7 -16 15 0 9 -6 12 -15 9 -8 -4 -15 -1
-15 5 0 7 10 15 22 20 14 5 18 10 10 15 -7 4 -10 12 -6 17 6 11 44 -17 44 -33z
m50 -28 c0 -5 -4 -10 -10 -10 -5 0 -10 5 -10 10 0 6 5 10 10 10 6 0 10 -4 10
-10z m-80 -45 c0 -22 -17 -35 -36 -29 -18 6 -18 6 1 -9 11 -9 15 -17 8 -17 -6
0 -9 -9 -6 -20 6 -22 -22 -90 -37 -90 -24 0 -60 25 -60 42 0 10 5 18 10 18 6
0 10 -4 10 -10 0 -5 5 -10 11 -10 6 0 9 9 6 20 -3 11 -1 23 4 26 6 4 6 11 -1
19 -8 9 -7 14 4 18 8 3 22 22 31 41 15 31 19 34 36 23 10 -6 19 -16 19 -22z
m39 -52 c-7 -21 -19 -45 -26 -54 -7 -9 -10 -19 -6 -22 3 -4 1 -7 -5 -7 -14 0
-16 12 -4 26 5 5 17 31 26 57 21 56 34 57 15 0z m-49 -113 c0 -5 -2 -10 -4
-10 -3 0 -8 5 -11 10 -3 6 -1 10 4 10 6 0 11 -4 11 -10z m-79 -30 c5 0 9 -5 9
-10 0 -6 -12 -8 -27 -4 l-28 6 25 -21 c14 -11 20 -21 14 -21 -6 0 -10 -10 -10
-21 1 -12 -5 -24 -13 -27 -9 -3 -12 0 -9 9 4 10 -2 15 -20 14 -17 0 -28 6 -30
18 -2 10 3 17 13 17 9 0 13 -4 10 -10 -7 -12 -3 -12 20 -4 12 5 13 9 5 14 -18
11 -2 53 17 46 8 -3 19 -6 24 -6z m54 -46 c-8 -16 -15 -35 -15 -42 0 -7 -4
-11 -9 -8 -11 7 -9 18 10 63 7 18 17 29 21 25 5 -5 2 -22 -7 -38z m-169 -103
l-15 -29 64 -28 c36 -16 65 -35 65 -41 0 -7 -4 -13 -10 -13 -5 0 -10 5 -10 10
0 6 -14 10 -32 10 -25 0 -29 -3 -20 -12 14 -14 16 -28 3 -28 -5 0 -30 9 -55
21 -33 14 -44 24 -38 32 5 7 15 33 22 60 7 27 18 47 27 47 11 0 11 -5 -1 -29z
m51 -21 c18 0 73 -31 73 -42 0 -4 -22 2 -50 14 -32 13 -50 27 -49 37 0 10 2
12 6 4 2 -7 11 -13 20 -13z m-270 -790 c-6 -113 -11 -135 -29 -124 -7 5 -8 42
-3 113 7 111 9 121 27 121 8 0 9 -34 5 -110z m-44 -192 c-6 -49 -23 -67 -23
-24 0 26 18 81 24 75 2 -2 2 -25 -1 -51z m147 -35 c-11 -17 -11 -17 -6 0 3 10
7 31 7 45 l2 27 4 -27 c2 -15 -1 -35 -7 -45z m-60 -48 c0 -28 -4 -35 -19 -35
-10 0 -21 9 -24 20 -3 11 -1 20 5 20 6 0 8 7 4 15 -4 10 1 15 14 15 16 0 20
-7 20 -35z"/>
<path d="M6231 3041 c-7 -5 -11 -15 -9 -22 3 -10 8 -7 17 9 13 24 12 26 -8 13z"/>
<path d="M6115 2680 c4 -6 11 -8 16 -5 14 9 11 15 -7 15 -8 0 -12 -5 -9 -10z"/>
<path d="M5585 1517 c-4 -10 -5 -21 -1 -24 10 -10 18 4 13 24 -4 17 -4 17 -12
0z"/>
<path d="M5230 140 c0 -5 10 -10 23 -10 18 0 19 2 7 10 -19 13 -30 13 -30 0z"/>
</g>
</svg>
